# Blender v2.92.0 OBJ File: ''
# www.blender.org
mtllib table.mtl
o Bein
v -50.000000 -50.000015 94.999992
v -50.000000 49.999985 95.000008
v -60.000000 49.999985 95.000008
v -60.000000 -50.000015 94.999992
v -50.000000 -50.000015 84.999992
v -50.000000 49.999985 85.000008
v -60.000000 -50.000015 84.999992
v -60.000000 49.999985 85.000008
v 50.000000 25.000013 -84.908836
v 50.000000 35.000015 -84.908836
v -50.000000 35.000015 -84.908836
v -50.000000 25.000013 -84.908836
v 50.000000 25.000015 -94.908836
v 50.000000 35.000015 -94.908836
v -50.000000 25.000015 -94.908836
v -50.000000 35.000015 -94.908836
v 50.000000 24.999985 94.414047
v 50.000000 34.999985 94.414047
v -50.000000 34.999985 94.414047
v -50.000000 24.999985 94.414047
v 50.000000 24.999987 84.414047
v 50.000000 34.999985 84.414047
v -50.000000 24.999987 84.414047
v -50.000000 34.999985 84.414047
v 5.000000 24.999985 90.000008
v 5.000000 34.999985 90.000008
v -5.000000 34.999985 90.000008
v -5.000000 24.999985 90.000008
v 5.000000 25.000015 -89.999992
v 5.000000 35.000015 -89.999992
v -5.000000 25.000015 -89.999992
v -5.000000 35.000015 -89.999992
v 70.000000 47.517567 110.000008
v 70.000000 52.517567 110.000008
v -70.000000 52.517567 110.000008
v -70.000000 47.517567 110.000008
v -70.000000 47.517605 -109.999992
v -70.000000 52.517605 -109.999992
v 70.000000 52.517605 -109.999992
v 70.000000 47.517605 -109.999992
v 60.000000 -50.000015 94.999992
v 60.000000 49.999985 95.000008
v 50.000000 49.999985 95.000008
v 50.000000 -50.000015 94.999992
v 60.000000 -50.000015 84.999992
v 60.000000 49.999985 85.000008
v 50.000000 -50.000015 84.999992
v 50.000000 49.999985 85.000008
v -50.000000 -49.999985 -85.000008
v -50.000000 50.000015 -84.999992
v -60.000000 50.000015 -84.999992
v -60.000000 -49.999985 -85.000008
v -50.000000 -49.999985 -95.000008
v -50.000000 50.000015 -94.999992
v -60.000000 -49.999985 -95.000008
v -60.000000 50.000015 -94.999992
v 60.000000 -49.999985 -85.000008
v 60.000000 50.000015 -84.999992
v 50.000000 50.000015 -84.999992
v 50.000000 -49.999985 -85.000008
v 60.000000 -49.999985 -95.000008
v 60.000000 50.000015 -94.999992
v 50.000000 -49.999985 -95.000008
v 50.000000 50.000015 -94.999992
vt 0.059700 0.955223
vt 0.059700 0.656715
vt 0.089550 0.656715
vt 0.089550 0.955223
vt 0.895523 0.567162
vt 0.895523 0.865669
vt 0.865669 0.865669
vt 0.865669 0.567162
vt 0.149254 0.955223
vt 0.149254 0.656715
vt 0.179104 0.656715
vt 0.179104 0.955223
vt 0.358208 0.955223
vt 0.358208 0.656715
vt 0.388062 0.656715
vt 0.388062 0.955223
vt 0.895523 0.895519
vt 0.865669 0.895519
vt 0.865669 0.537312
vt 0.895523 0.537312
vt 0.835821 0.537315
vt 0.835821 0.000000
vt 0.865672 0.000000
vt 0.865672 0.537315
vt 0.895522 0.000000
vt 0.895522 0.537315
vt 0.865671 0.537315
vt 0.865671 0.000000
vt 0.985073 0.000000
vt 1.000000 0.000000
vt 1.000000 0.417908
vt 0.985073 0.417908
vt 0.985073 0.417908
vt 1.000000 0.417908
vt 1.000000 0.835815
vt 0.985073 0.835815
vt 0.417908 0.656715
vt 0.417908 0.000000
vt 0.835815 0.000000
vt 0.835815 0.656715
vt 0.417908 0.000000
vt 0.417908 0.656715
vt 0.000000 0.656715
vt 0.000000 0.000000
vt 0.000000 0.955223
vt 0.000000 0.656715
vt 0.029850 0.656715
vt 0.029850 0.955223
vt 0.537315 0.656715
vt 0.537315 0.955223
vt 0.507462 0.955223
vt 0.507462 0.656715
vt 0.208954 0.955223
vt 0.208954 0.656715
vt 0.238804 0.656715
vt 0.238804 0.955223
vt 0.925369 0.865669
vt 0.925369 0.567162
vt 0.955223 0.567162
vt 0.955223 0.865669
vt 0.925369 0.537312
vt 0.955223 0.537312
vt 0.955223 0.895519
vt 0.925369 0.895519
vt 0.089554 0.955223
vt 0.089554 0.656715
vt 0.119404 0.656715
vt 0.119404 0.955223
vt 0.925377 0.567162
vt 0.925377 0.865669
vt 0.895523 0.865669
vt 0.895523 0.567162
vt 0.179104 0.955223
vt 0.179104 0.656715
vt 0.208954 0.656715
vt 0.208954 0.955223
vt 0.238808 0.955223
vt 0.238808 0.656715
vt 0.268661 0.656715
vt 0.268661 0.955223
vt 0.925377 0.895519
vt 0.895523 0.895519
vt 0.895523 0.537312
vt 0.925377 0.537312
vt 0.119404 0.955223
vt 0.119404 0.656715
vt 0.149254 0.656715
vt 0.149254 0.955223
vt 0.477615 0.656715
vt 0.477615 0.955223
vt 0.447762 0.955223
vt 0.447762 0.656715
vt 0.029850 0.955223
vt 0.029850 0.656715
vt 0.059700 0.656715
vt 0.059700 0.955223
vt 0.835823 0.865669
vt 0.835823 0.567162
vt 0.865677 0.567162
vt 0.865677 0.865669
vt 0.835823 0.537312
vt 0.865677 0.537312
vt 0.865677 0.895519
vt 0.835823 0.895519
vt 0.388060 0.656715
vt 0.417910 0.656715
vt 0.417910 0.955223
vt 0.388060 0.955223
vt 0.656715 0.686569
vt 0.686565 0.686569
vt 0.686565 0.716423
vt 0.656715 0.716423
vt 0.268658 0.656715
vt 0.298508 0.656715
vt 0.298508 0.955223
vt 0.268658 0.955223
vt 0.626865 0.686569
vt 0.597015 0.686569
vt 0.597015 0.656715
vt 0.626865 0.656715
vt 0.537315 0.656715
vt 0.567169 0.656715
vt 0.567169 0.955223
vt 0.537315 0.955223
vt 0.328362 0.955223
vt 0.298508 0.955223
vt 0.298508 0.656715
vt 0.328362 0.656715
vt 0.567163 0.656715
vt 0.597013 0.656715
vt 0.597013 0.955223
vt 0.567163 0.955223
vt 0.626865 0.686569
vt 0.656715 0.686569
vt 0.656715 0.716423
vt 0.626865 0.716423
vt 0.477612 0.656715
vt 0.507462 0.656715
vt 0.507462 0.955223
vt 0.477612 0.955223
vt 0.626865 0.716423
vt 0.597015 0.716423
vt 0.597015 0.686569
vt 0.626865 0.686569
vt 0.417908 0.656715
vt 0.447762 0.656715
vt 0.447762 0.955223
vt 0.417908 0.955223
vt 0.358215 0.955223
vt 0.328362 0.955223
vt 0.328362 0.656715
vt 0.358215 0.656715
vt 0.656716 0.686565
vt 0.656716 0.656715
vt 0.686567 0.656715
vt 0.686567 0.686565
vt 0.925373 0.000000
vt 0.955223 0.000000
vt 0.955223 0.537315
vt 0.925373 0.537315
vt 0.626865 0.686565
vt 0.626865 0.656715
vt 0.656716 0.656715
vt 0.656716 0.686565
vt 0.925373 0.537315
vt 0.895523 0.537315
vt 0.895523 0.000000
vt 0.925373 0.000000
vt 0.970150 0.000000
vt 0.985077 0.000000
vt 0.985077 0.656715
vt 0.970150 0.656715
vt 0.970150 0.656715
vt 0.955223 0.656715
vt 0.955223 0.000000
vt 0.970150 0.000000
vn 0.0000 -0.0000 1.0000
vn 1.0000 0.0000 0.0000
vn 0.0000 0.0000 -1.0000
vn -1.0000 0.0000 0.0000
vn 0.0000 1.0000 0.0000
vn 0.0000 -1.0000 0.0000
usemtl Mat
s 1
f 1/1/1 2/2/1 3/3/1 4/4/1
f 5/5/2 6/6/2 2/7/2 1/8/2
f 7/9/3 8/10/3 6/11/3 5/12/3
f 4/13/4 3/14/4 8/15/4 7/16/4
f 2/7/5 6/6/5 8/17/5 3/18/5
f 5/5/6 1/8/6 4/19/6 7/20/6
f 26/21/5 30/22/5 32/23/5 27/24/5
f 29/25/6 25/26/6 28/27/6 31/28/6
f 33/29/1 34/30/1 35/31/1 36/32/1
f 37/33/3 38/34/3 39/35/3 40/36/3
f 34/37/5 39/38/5 38/39/5 35/40/5
f 40/41/6 33/42/6 36/43/6 37/44/6
f 41/45/1 42/46/1 43/47/1 44/48/1
f 45/49/2 46/50/2 42/51/2 41/52/2
f 47/53/3 48/54/3 46/55/3 45/56/3
f 44/57/4 43/58/4 48/59/4 47/60/4
f 42/61/5 46/62/5 48/59/5 43/58/5
f 45/63/6 41/64/6 44/57/6 47/60/6
f 49/65/1 50/66/1 51/67/1 52/68/1
f 53/69/2 54/70/2 50/71/2 49/72/2
f 55/73/3 56/74/3 54/75/3 53/76/3
f 52/77/4 51/78/4 56/79/4 55/80/4
f 50/71/5 54/70/5 56/81/5 51/82/5
f 53/69/6 49/72/6 52/83/6 55/84/6
f 57/85/1 58/86/1 59/87/1 60/88/1
f 61/89/2 62/90/2 58/91/2 57/92/2
f 63/93/3 64/94/3 62/95/3 61/96/3
f 60/97/4 59/98/4 64/99/4 63/100/4
f 58/101/5 62/102/5 64/99/5 59/98/5
f 61/103/6 57/104/6 60/97/6 63/100/6
usemtl Mat.1
f 9/105/1 10/106/1 11/107/1 12/108/1
f 13/109/2 14/110/2 10/111/2 9/112/2
f 15/113/3 16/114/3 14/115/3 13/116/3
f 12/117/4 11/118/4 16/119/4 15/120/4
f 10/121/5 14/122/5 16/123/5 11/124/5
f 13/125/6 9/126/6 12/127/6 15/128/6
f 17/129/1 18/130/1 19/131/1 20/132/1
f 21/133/2 22/134/2 18/135/2 17/136/2
f 23/137/3 24/138/3 22/139/3 21/140/3
f 20/141/4 19/142/4 24/143/4 23/144/4
f 18/145/5 22/146/5 24/147/5 19/148/5
f 21/149/6 17/150/6 20/151/6 23/152/6
f 25/153/1 26/154/1 27/155/1 28/156/1
f 29/157/2 30/158/2 26/159/2 25/160/2
f 31/161/3 32/162/3 30/163/3 29/164/3
f 28/165/4 27/166/4 32/167/4 31/168/4
f 40/169/2 39/170/2 34/171/2 33/172/2
f 36/173/4 35/174/4 38/175/4 37/176/4
